<svg id="svg" version="1.1" xmlns="http://www.w3.org/2000/svg" xmlns:xlink="http://www.w3.org/1999/xlink" width="400" height="400" viewBox="0, 0, 400,400"><g id="svgg"><path id="path0" d="M333.400 42.078 C 332.960 42.327,332.510 42.641,332.400 42.776 C 332.290 42.910,331.345 43.465,330.300 44.009 C 329.255 44.553,328.400 45.134,328.400 45.299 C 328.400 45.465,328.164 45.600,327.875 45.600 C 327.587 45.600,326.964 45.960,326.492 46.400 C 326.020 46.840,325.534 47.200,325.413 47.200 C 325.292 47.200,324.628 47.740,323.937 48.400 C 323.246 49.060,322.478 49.600,322.229 49.600 C 321.980 49.600,321.517 49.960,321.200 50.400 C 320.883 50.840,320.391 51.200,320.108 51.200 C 319.825 51.200,319.028 51.740,318.337 52.400 C 317.646 53.060,316.878 53.600,316.629 53.600 C 316.380 53.600,315.917 53.960,315.600 54.400 C 315.283 54.840,314.775 55.200,314.472 55.200 C 314.169 55.200,313.417 55.740,312.800 56.400 C 312.183 57.060,311.480 57.600,311.236 57.600 C 310.992 57.600,310.300 58.040,309.697 58.577 C 309.093 59.114,308.420 59.608,308.200 59.675 C 307.980 59.741,307.103 60.471,306.252 61.297 C 305.400 62.124,304.527 62.800,304.312 62.800 C 304.097 62.800,303.417 63.340,302.800 64.000 C 302.183 64.660,301.503 65.200,301.288 65.200 C 301.073 65.200,300.155 65.920,299.248 66.800 C 298.341 67.680,297.441 68.400,297.248 68.400 C 297.055 68.400,296.155 69.120,295.248 70.000 C 294.341 70.880,293.468 71.600,293.308 71.600 C 293.148 71.600,292.384 72.293,291.609 73.139 C 290.834 73.986,289.578 74.999,288.818 75.392 C 288.058 75.784,286.767 76.802,285.949 77.653 C 285.132 78.504,284.259 79.200,284.009 79.200 C 283.760 79.200,282.496 80.280,281.200 81.600 C 279.904 82.920,278.651 84.000,278.416 84.000 C 278.180 84.000,277.495 84.558,276.894 85.240 C 274.895 87.506,272.708 89.600,272.340 89.600 C 271.976 89.600,271.046 90.419,267.004 94.300 C 265.801 95.455,264.655 96.400,264.455 96.400 C 264.115 96.400,262.873 97.616,255.992 104.690 C 254.446 106.280,253.050 107.564,252.890 107.545 C 252.105 107.447,245.561 113.887,245.245 115.068 C 245.109 115.578,242.388 118.658,239.198 121.912 C 236.009 125.165,231.905 129.441,230.079 131.414 C 228.252 133.386,224.562 137.260,221.879 140.022 C 216.957 145.087,211.891 150.560,207.169 155.911 C 205.756 157.512,203.430 160.148,202.000 161.769 C 192.952 172.028,177.158 190.729,173.600 195.396 C 173.050 196.118,171.394 198.214,169.921 200.054 C 168.447 201.894,166.557 204.280,165.721 205.356 C 164.884 206.432,163.544 208.045,162.743 208.941 L 161.285 210.570 159.143 209.116 C 157.964 208.316,155.830 206.831,154.400 205.817 C 152.970 204.802,151.170 203.531,150.400 202.992 C 147.888 201.234,143.831 198.409,142.400 197.423 C 141.630 196.892,139.830 195.630,138.400 194.619 C 136.970 193.607,134.630 191.975,133.200 190.992 C 130.585 189.194,126.739 186.525,123.836 184.494 C 122.976 183.892,121.880 183.130,121.400 182.800 C 119.640 181.590,117.355 179.997,115.600 178.758 C 114.610 178.059,112.630 176.668,111.200 175.666 C 109.770 174.664,105.383 171.584,101.451 168.822 C 97.519 166.060,92.511 162.575,90.322 161.077 L 86.342 158.355 81.686 162.677 C 74.039 169.777,62.370 181.312,62.489 181.655 C 62.550 181.830,63.320 182.982,64.200 184.215 C 67.113 188.295,71.936 194.978,72.993 196.400 C 74.827 198.865,76.174 200.729,77.200 202.219 C 77.750 203.018,78.665 204.240,79.233 204.936 C 79.800 205.631,80.385 206.470,80.532 206.800 C 80.680 207.130,81.429 208.210,82.198 209.200 C 82.967 210.190,84.046 211.630,84.597 212.400 C 85.147 213.170,86.048 214.430,86.600 215.200 C 87.152 215.970,88.045 217.230,88.584 218.000 C 89.124 218.770,90.470 220.660,91.576 222.200 C 92.681 223.740,94.126 225.771,94.787 226.712 C 97.699 230.860,105.023 241.125,105.980 242.400 C 106.557 243.170,107.743 244.856,108.615 246.147 C 109.487 247.437,110.560 248.989,111.000 249.594 C 111.690 250.544,114.485 254.580,116.400 257.393 C 116.730 257.877,117.450 258.911,118.000 259.689 C 118.550 260.467,120.205 262.880,121.677 265.052 C 123.149 267.223,125.911 271.250,127.813 274.000 C 132.089 280.181,147.200 302.819,147.200 303.044 C 147.200 303.134,147.830 304.105,148.600 305.200 C 149.370 306.295,150.000 307.285,150.000 307.400 C 150.000 307.515,150.585 308.470,151.300 309.524 C 152.823 311.769,152.537 311.306,157.255 319.148 C 161.821 326.737,161.902 326.828,162.793 325.331 C 164.525 322.419,168.165 316.177,168.564 315.431 C 169.010 314.600,181.596 293.720,182.881 291.681 C 183.255 291.086,183.795 290.206,184.081 289.724 C 184.366 289.242,185.463 287.442,186.517 285.724 C 187.572 284.006,188.652 282.242,188.917 281.804 C 190.323 279.485,199.185 265.421,201.395 262.000 C 201.892 261.230,203.518 258.710,205.007 256.400 C 206.496 254.090,208.724 250.671,209.957 248.803 C 212.356 245.170,212.997 244.146,213.464 243.205 C 213.885 242.355,233.879 212.640,237.152 208.000 C 238.335 206.322,241.430 201.829,242.800 199.800 C 243.975 198.060,247.416 193.073,248.400 191.685 C 248.950 190.909,249.670 189.881,250.000 189.401 C 250.865 188.143,252.638 185.622,253.800 184.000 C 254.352 183.230,255.246 181.970,255.788 181.200 C 256.718 179.877,259.245 176.409,265.884 167.340 C 273.833 156.482,276.633 152.996,277.503 152.872 C 277.997 152.802,278.400 152.473,278.400 152.141 C 278.400 151.809,279.120 150.846,280.000 150.000 C 280.880 149.154,281.600 148.251,281.600 147.992 C 281.600 147.733,282.140 147.017,282.800 146.400 C 283.460 145.783,284.000 145.063,284.000 144.800 C 284.000 144.537,284.540 143.817,285.200 143.200 C 285.860 142.583,286.400 141.953,286.400 141.800 C 286.400 141.647,286.940 141.017,287.600 140.400 C 288.260 139.783,288.800 139.124,288.800 138.935 C 288.800 138.746,289.427 137.873,290.192 136.996 C 290.958 136.118,291.588 135.164,291.592 134.876 C 291.597 134.588,291.780 134.464,292.000 134.600 C 292.220 134.736,292.400 134.549,292.400 134.184 C 292.400 133.819,292.940 133.017,293.600 132.400 C 294.260 131.783,294.800 131.103,294.800 130.888 C 294.800 130.673,295.520 129.755,296.400 128.848 C 297.280 127.941,298.000 126.999,298.000 126.754 C 298.000 126.509,298.720 125.678,299.600 124.906 C 300.480 124.135,301.200 123.349,301.200 123.159 C 301.200 122.969,302.009 121.970,302.998 120.938 C 303.986 119.906,304.718 118.985,304.624 118.891 C 304.530 118.797,305.026 118.118,305.727 117.382 C 307.542 115.474,308.000 114.885,308.000 114.457 C 308.000 114.250,308.900 113.162,310.000 112.039 C 311.100 110.915,312.000 109.842,312.000 109.653 C 312.000 109.464,312.900 108.468,314.000 107.439 C 315.100 106.410,316.000 105.386,316.000 105.165 C 316.000 104.943,317.260 103.519,318.800 102.000 C 320.340 100.481,321.600 99.044,321.600 98.806 C 321.600 98.568,322.185 97.777,322.900 97.048 C 324.983 94.925,326.000 93.630,326.004 93.097 C 326.006 92.824,326.587 92.150,327.295 91.600 C 328.965 90.304,333.200 85.940,333.200 85.516 C 333.200 85.336,334.685 83.679,336.500 81.835 C 340.406 77.866,343.200 74.842,343.200 74.585 C 343.200 74.219,362.244 55.373,363.768 54.231 C 364.626 53.588,367.007 51.383,369.059 49.331 C 371.111 47.279,372.943 45.600,373.131 45.600 C 373.571 45.600,376.000 42.936,376.000 42.453 C 376.000 41.471,335.106 41.110,333.400 42.078 " stroke="none" fill="#fb5c74" fill-rule="evenodd"></path><path id="path1" d="M148.000 86.000 C 148.000 86.235,146.600 86.400,144.600 86.400 C 142.600 86.400,141.200 86.565,141.200 86.800 C 141.200 87.029,140.000 87.200,138.400 87.200 C 136.800 87.200,135.600 87.371,135.600 87.600 C 135.600 87.820,134.700 88.000,133.600 88.000 C 132.500 88.000,131.600 88.180,131.600 88.400 C 131.600 88.620,130.880 88.800,130.000 88.800 C 129.120 88.800,128.400 88.980,128.400 89.200 C 128.400 89.420,127.680 89.600,126.800 89.600 C 125.920 89.600,125.200 89.780,125.200 90.000 C 125.200 90.220,124.570 90.400,123.800 90.400 C 123.030 90.400,122.400 90.541,122.400 90.714 C 122.400 90.999,119.846 91.668,116.500 92.258 C 115.785 92.384,115.200 92.648,115.200 92.844 C 115.200 93.040,114.660 93.200,114.000 93.200 C 113.340 93.200,112.800 93.380,112.800 93.600 C 112.800 93.820,112.445 94.000,112.012 94.000 C 111.579 94.000,110.583 94.360,109.800 94.800 C 109.017 95.240,108.021 95.600,107.588 95.600 C 107.155 95.600,106.800 95.780,106.800 96.000 C 106.800 96.220,106.440 96.400,106.000 96.400 C 105.560 96.400,105.200 96.580,105.200 96.800 C 105.200 97.020,104.840 97.200,104.400 97.200 C 103.960 97.200,103.600 97.380,103.600 97.600 C 103.600 97.820,103.251 98.000,102.824 98.000 C 102.397 98.000,101.936 98.180,101.800 98.400 C 101.664 98.620,101.113 98.800,100.576 98.800 C 100.039 98.800,99.600 98.952,99.600 99.137 C 99.600 99.323,98.745 99.908,97.700 100.437 C 96.655 100.967,95.740 101.535,95.667 101.700 C 95.593 101.865,95.188 102.000,94.767 102.000 C 94.345 102.000,94.000 102.180,94.000 102.400 C 94.000 102.620,93.640 102.800,93.200 102.800 C 92.760 102.800,92.400 102.980,92.400 103.200 C 92.400 103.420,92.170 103.600,91.888 103.600 C 91.607 103.600,91.117 103.960,90.800 104.400 C 90.483 104.840,89.903 105.200,89.512 105.200 C 89.120 105.200,88.800 105.380,88.800 105.600 C 88.800 105.820,88.480 106.000,88.088 106.000 C 87.697 106.000,87.117 106.360,86.800 106.800 C 86.483 107.240,85.903 107.600,85.512 107.600 C 85.120 107.600,84.800 107.758,84.800 107.951 C 84.800 108.145,84.265 108.525,83.611 108.795 C 82.957 109.066,81.922 109.718,81.311 110.243 C 80.700 110.769,80.015 111.199,79.788 111.200 C 79.562 111.200,79.117 111.560,78.800 112.000 C 78.483 112.440,78.014 112.800,77.758 112.800 C 77.502 112.800,76.643 113.520,75.848 114.400 C 75.053 115.280,74.223 116.000,74.004 116.000 C 73.785 116.000,72.508 117.080,71.168 118.400 C 69.827 119.720,68.553 120.800,68.335 120.800 C 67.827 120.800,58.800 129.884,58.800 130.396 C 58.800 130.608,57.810 131.773,56.600 132.983 C 55.390 134.193,54.400 135.366,54.400 135.591 C 54.400 135.815,53.680 136.741,52.800 137.648 C 51.920 138.555,51.200 139.505,51.200 139.760 C 51.200 140.015,50.840 140.483,50.400 140.800 C 49.960 141.117,49.600 141.519,49.600 141.692 C 49.600 141.865,49.060 142.572,48.400 143.263 C 47.740 143.954,47.200 144.679,47.200 144.876 C 47.200 145.073,46.840 145.620,46.400 146.092 C 45.960 146.564,45.600 147.187,45.600 147.475 C 45.600 147.764,45.420 148.000,45.200 148.000 C 44.980 148.000,44.800 148.236,44.800 148.525 C 44.800 148.813,44.440 149.436,44.000 149.908 C 43.560 150.380,43.200 151.029,43.200 151.350 C 43.200 151.671,43.065 151.993,42.900 152.067 C 42.465 152.260,41.200 154.765,41.200 155.432 C 41.200 155.745,41.020 156.000,40.800 156.000 C 40.580 156.000,40.400 156.360,40.400 156.800 C 40.400 157.240,40.220 157.600,40.000 157.600 C 39.780 157.600,39.600 157.870,39.600 158.200 C 39.600 158.530,39.420 158.800,39.200 158.800 C 38.980 158.800,38.800 159.160,38.800 159.600 C 38.800 160.040,38.620 160.400,38.400 160.400 C 38.180 160.400,38.000 160.760,38.000 161.200 C 38.000 161.640,37.820 162.000,37.600 162.000 C 37.380 162.000,37.200 162.360,37.200 162.800 C 37.200 163.240,37.020 163.600,36.800 163.600 C 36.580 163.600,36.400 163.960,36.400 164.400 C 36.400 164.840,36.220 165.200,36.000 165.200 C 35.780 165.200,35.600 165.560,35.600 166.000 C 35.600 166.440,35.420 166.800,35.200 166.800 C 34.980 166.800,34.800 167.239,34.800 167.776 C 34.800 168.313,34.620 168.864,34.400 169.000 C 34.180 169.136,34.000 169.597,34.000 170.024 C 34.000 170.451,33.820 170.800,33.600 170.800 C 33.380 170.800,33.200 171.340,33.200 172.000 C 33.200 172.660,33.020 173.200,32.800 173.200 C 32.580 173.200,32.400 173.560,32.400 174.000 C 32.400 174.440,32.220 174.800,32.000 174.800 C 31.780 174.800,31.600 175.250,31.600 175.800 C 31.600 176.350,31.420 176.800,31.200 176.800 C 30.980 176.800,30.800 177.340,30.800 178.000 C 30.800 178.660,30.620 179.200,30.400 179.200 C 30.180 179.200,30.000 179.740,30.000 180.400 C 30.000 181.060,29.820 181.600,29.600 181.600 C 29.380 181.600,29.200 182.320,29.200 183.200 C 29.200 184.080,29.020 184.800,28.800 184.800 C 28.580 184.800,28.400 185.340,28.400 186.000 C 28.400 186.660,28.220 187.200,28.000 187.200 C 27.780 187.200,27.600 187.999,27.600 188.976 C 27.600 189.953,27.439 190.852,27.242 190.974 C 26.886 191.194,26.572 192.801,26.143 196.600 C 26.019 197.700,25.756 198.799,25.559 199.041 C 25.361 199.284,25.082 202.209,24.937 205.541 C 24.793 208.874,24.523 211.600,24.338 211.600 C 24.152 211.600,24.000 216.280,24.000 222.000 C 24.000 227.720,24.152 232.400,24.338 232.400 C 24.524 232.400,24.795 235.024,24.941 238.232 C 25.086 241.439,25.374 244.378,25.580 244.762 C 25.786 245.147,25.997 246.393,26.049 247.531 C 26.100 248.669,26.291 249.600,26.471 249.600 C 26.652 249.600,26.800 250.309,26.800 251.176 C 26.800 252.043,26.980 252.864,27.200 253.000 C 27.420 253.136,27.600 253.946,27.600 254.800 C 27.600 255.654,27.780 256.464,28.000 256.600 C 28.220 256.736,28.400 257.287,28.400 257.824 C 28.400 258.361,28.580 258.800,28.800 258.800 C 29.020 258.800,29.200 259.520,29.200 260.400 C 29.200 261.280,29.380 262.000,29.600 262.000 C 29.820 262.000,30.000 262.540,30.000 263.200 C 30.000 263.860,30.180 264.400,30.400 264.400 C 30.620 264.400,30.800 264.940,30.800 265.600 C 30.800 266.260,30.980 266.800,31.200 266.800 C 31.420 266.800,31.600 267.340,31.600 268.000 C 31.600 268.660,31.780 269.200,32.000 269.200 C 32.220 269.200,32.400 269.549,32.400 269.976 C 32.400 270.403,32.580 270.864,32.800 271.000 C 33.020 271.136,33.200 271.687,33.200 272.224 C 33.200 272.761,33.380 273.200,33.600 273.200 C 33.820 273.200,34.000 273.650,34.000 274.200 C 34.000 274.750,34.180 275.200,34.400 275.200 C 34.620 275.200,34.800 275.560,34.800 276.000 C 34.800 276.440,34.980 276.800,35.200 276.800 C 35.420 276.800,35.600 277.160,35.600 277.600 C 35.600 278.040,35.780 278.400,36.000 278.400 C 36.220 278.400,36.400 278.760,36.400 279.200 C 36.400 279.640,36.580 280.000,36.800 280.000 C 37.020 280.000,37.200 280.360,37.200 280.800 C 37.200 281.240,37.380 281.600,37.600 281.600 C 37.820 281.600,38.000 281.960,38.000 282.400 C 38.000 282.840,38.180 283.200,38.400 283.200 C 38.620 283.200,38.800 283.560,38.800 284.000 C 38.800 284.440,38.980 284.800,39.200 284.800 C 39.420 284.800,39.600 285.160,39.600 285.600 C 39.600 286.040,39.780 286.400,40.000 286.400 C 40.220 286.400,40.400 286.760,40.400 287.200 C 40.400 287.640,40.580 288.000,40.800 288.000 C 41.020 288.000,41.200 288.360,41.200 288.800 C 41.200 289.240,41.360 289.600,41.557 289.600 C 41.753 289.600,42.026 290.050,42.164 290.600 C 42.302 291.150,42.592 291.600,42.808 291.600 C 43.023 291.600,43.200 291.960,43.200 292.400 C 43.200 292.840,43.380 293.200,43.600 293.200 C 43.820 293.200,44.000 293.436,44.000 293.725 C 44.000 294.013,44.360 294.636,44.800 295.108 C 45.240 295.580,45.600 296.204,45.600 296.495 C 45.600 296.786,45.960 297.283,46.400 297.600 C 46.840 297.917,47.200 298.362,47.201 298.588 C 47.201 298.815,47.741 299.630,48.400 300.400 C 49.059 301.170,49.599 301.985,49.599 302.212 C 49.600 302.438,49.960 302.883,50.400 303.200 C 50.840 303.517,51.200 303.985,51.200 304.240 C 51.200 304.495,51.920 305.445,52.800 306.352 C 53.680 307.259,54.400 308.102,54.400 308.226 C 54.400 308.350,55.300 309.329,56.400 310.400 C 57.500 311.471,58.400 312.538,58.400 312.771 C 58.400 313.004,58.805 313.673,59.300 314.258 C 60.768 315.994,68.000 323.249,68.000 322.985 C 68.000 322.852,68.248 322.981,68.551 323.271 C 68.854 323.562,69.511 324.070,70.011 324.400 C 70.511 324.730,71.698 325.765,72.649 326.700 C 73.601 327.635,74.491 328.400,74.629 328.400 C 74.767 328.400,75.383 328.940,76.000 329.600 C 76.617 330.260,77.337 330.800,77.600 330.800 C 77.863 330.800,78.583 331.340,79.200 332.000 C 79.817 332.660,80.543 333.200,80.814 333.200 C 81.084 333.200,81.597 333.516,81.953 333.903 C 82.309 334.289,83.095 334.860,83.700 335.170 C 84.305 335.481,84.800 335.885,84.800 336.068 C 84.800 336.250,85.120 336.400,85.512 336.400 C 85.903 336.400,86.483 336.760,86.800 337.200 C 87.117 337.640,87.697 338.000,88.088 338.000 C 88.480 338.000,88.800 338.158,88.800 338.351 C 88.800 338.545,89.340 338.927,90.000 339.200 C 90.660 339.473,91.202 339.810,91.205 339.949 C 91.208 340.087,92.378 340.740,93.805 341.400 C 95.232 342.060,96.400 342.735,96.400 342.900 C 96.400 343.065,96.760 343.200,97.200 343.200 C 97.640 343.200,98.000 343.380,98.000 343.600 C 98.000 343.820,98.360 344.000,98.800 344.000 C 99.240 344.000,99.600 344.180,99.600 344.400 C 99.600 344.620,99.960 344.800,100.400 344.800 C 100.840 344.800,101.200 344.980,101.200 345.200 C 101.200 345.420,101.549 345.600,101.976 345.600 C 102.403 345.600,102.864 345.780,103.000 346.000 C 103.136 346.220,103.687 346.400,104.224 346.400 C 104.761 346.400,105.200 346.580,105.200 346.800 C 105.200 347.020,105.560 347.200,106.000 347.200 C 106.440 347.200,106.800 347.380,106.800 347.600 C 106.800 347.820,107.160 348.000,107.600 348.000 C 108.040 348.000,108.400 348.180,108.400 348.400 C 108.400 348.620,108.850 348.800,109.400 348.800 C 109.950 348.800,110.400 348.980,110.400 349.200 C 110.400 349.420,110.850 349.600,111.400 349.600 C 111.950 349.600,112.400 349.780,112.400 350.000 C 112.400 350.220,112.850 350.400,113.400 350.400 C 113.950 350.400,114.400 350.580,114.400 350.800 C 114.400 351.020,114.940 351.200,115.600 351.200 C 116.260 351.200,116.800 351.380,116.800 351.600 C 116.800 351.820,117.340 352.000,118.000 352.000 C 118.660 352.000,119.200 352.180,119.200 352.400 C 119.200 352.620,119.920 352.800,120.800 352.800 C 121.680 352.800,122.400 352.980,122.400 353.200 C 122.400 353.420,122.940 353.600,123.600 353.600 C 124.260 353.600,124.800 353.780,124.800 354.000 C 124.800 354.220,125.419 354.400,126.176 354.400 C 126.933 354.400,127.664 354.580,127.800 354.800 C 127.936 355.020,128.847 355.200,129.824 355.200 C 130.801 355.200,131.600 355.380,131.600 355.600 C 131.600 355.820,132.500 356.000,133.600 356.000 C 134.700 356.000,135.600 356.180,135.600 356.400 C 135.600 356.622,136.659 356.800,137.976 356.800 C 139.283 356.800,140.447 356.952,140.562 357.139 C 141.418 358.524,179.782 358.524,180.638 357.139 C 180.753 356.953,181.816 356.800,183.000 356.800 C 184.184 356.800,185.264 356.620,185.400 356.400 C 185.536 356.180,186.436 356.000,187.400 356.000 C 188.364 356.000,189.264 355.820,189.400 355.600 C 189.536 355.380,190.256 355.200,191.000 355.200 C 191.744 355.200,192.464 355.020,192.600 354.800 C 192.736 354.580,193.467 354.400,194.224 354.400 C 194.981 354.400,195.600 354.220,195.600 354.000 C 195.600 353.780,196.320 353.600,197.200 353.600 C 198.080 353.600,198.800 353.420,198.800 353.200 C 198.800 352.980,199.340 352.800,200.000 352.800 C 200.660 352.800,201.200 352.620,201.200 352.400 C 201.200 352.180,201.740 352.000,202.400 352.000 C 203.060 352.000,203.600 351.820,203.600 351.600 C 203.600 351.380,204.140 351.200,204.800 351.200 C 205.460 351.200,206.000 351.020,206.000 350.800 C 206.000 350.580,206.450 350.400,207.000 350.400 C 207.550 350.400,208.000 350.220,208.000 350.000 C 208.000 349.780,208.540 349.600,209.200 349.600 C 209.860 349.600,210.400 349.420,210.400 349.200 C 210.400 348.980,210.760 348.800,211.200 348.800 C 211.640 348.800,212.000 348.620,212.000 348.400 C 212.000 348.180,212.540 348.000,213.200 348.000 C 213.860 348.000,214.400 347.820,214.400 347.600 C 214.400 347.380,214.760 347.200,215.200 347.200 C 215.640 347.200,216.000 347.020,216.000 346.800 C 216.000 346.580,216.360 346.400,216.800 346.400 C 217.240 346.400,217.600 346.220,217.600 346.000 C 217.600 345.780,217.960 345.600,218.400 345.600 C 218.840 345.600,219.200 345.420,219.200 345.200 C 219.200 344.980,219.560 344.800,220.000 344.800 C 220.440 344.800,220.800 344.620,220.800 344.400 C 220.800 344.180,221.160 344.000,221.600 344.000 C 222.040 344.000,222.400 343.820,222.400 343.600 C 222.400 343.380,222.760 343.200,223.200 343.200 C 223.640 343.200,224.000 343.020,224.000 342.800 C 224.000 342.580,224.270 342.400,224.600 342.400 C 224.930 342.400,225.200 342.220,225.200 342.000 C 225.200 341.780,225.497 341.600,225.860 341.600 C 226.699 341.600,230.800 339.538,230.800 339.116 C 230.800 338.942,231.120 338.800,231.512 338.800 C 231.903 338.800,232.483 338.440,232.800 338.000 C 233.117 337.560,233.697 337.200,234.088 337.200 C 234.480 337.200,234.800 337.020,234.800 336.800 C 234.800 336.580,235.025 336.400,235.300 336.399 C 235.575 336.399,236.430 335.859,237.200 335.200 C 237.970 334.541,238.785 334.001,239.012 334.001 C 239.238 334.000,239.683 333.640,240.000 333.200 C 240.317 332.760,240.735 332.400,240.928 332.400 C 241.121 332.400,241.783 331.860,242.400 331.200 C 243.017 330.540,243.733 330.000,243.992 330.000 C 244.251 330.000,245.154 329.280,246.000 328.400 C 246.846 327.520,247.725 326.800,247.955 326.800 C 248.412 326.800,249.892 325.527,253.885 321.700 C 255.319 320.325,256.613 319.200,256.760 319.200 C 256.907 319.200,257.357 318.641,257.761 317.959 C 258.164 317.276,259.958 315.247,261.747 313.451 C 263.536 311.654,265.254 309.695,265.564 309.098 C 265.874 308.502,266.430 307.917,266.800 307.800 C 267.170 307.683,267.726 307.095,268.036 306.493 C 268.346 305.892,269.095 304.923,269.700 304.340 C 270.305 303.756,270.800 303.057,270.800 302.786 C 270.800 302.516,271.141 301.998,271.558 301.636 C 272.320 300.975,273.411 299.315,274.670 296.900 C 275.043 296.185,275.495 295.600,275.674 295.600 C 275.853 295.600,276.000 295.240,276.000 294.800 C 276.000 294.360,276.180 294.000,276.400 294.000 C 276.620 294.000,276.800 293.680,276.800 293.288 C 276.800 292.897,277.160 292.317,277.600 292.000 C 278.040 291.683,278.400 291.193,278.400 290.912 C 278.400 290.630,278.580 290.400,278.800 290.400 C 279.020 290.400,279.200 290.055,279.200 289.633 C 279.200 289.212,279.335 288.807,279.500 288.733 C 279.876 288.566,281.175 286.436,281.471 285.500 C 281.593 285.115,281.852 284.800,282.047 284.800 C 282.241 284.800,282.400 284.440,282.400 284.000 C 282.400 283.560,282.580 283.200,282.800 283.200 C 283.020 283.200,283.200 282.840,283.200 282.400 C 283.200 281.960,283.380 281.600,283.600 281.600 C 283.820 281.600,284.000 281.161,284.000 280.624 C 284.000 280.087,284.180 279.536,284.400 279.400 C 284.620 279.264,284.800 278.803,284.800 278.376 C 284.800 277.949,284.980 277.600,285.200 277.600 C 285.420 277.600,285.600 277.240,285.600 276.800 C 285.600 276.360,285.741 276.000,285.913 276.000 C 286.085 276.000,286.465 275.190,286.757 274.200 C 287.049 273.210,287.448 272.400,287.644 272.400 C 287.840 272.400,288.000 272.038,288.000 271.595 C 288.000 271.152,288.180 270.432,288.400 269.995 C 288.620 269.558,288.980 268.842,289.200 268.405 C 289.420 267.968,289.600 267.259,289.600 266.829 C 289.600 266.399,289.780 265.936,290.000 265.800 C 290.220 265.664,290.400 265.124,290.400 264.600 C 290.400 264.076,290.566 263.545,290.769 263.419 C 290.971 263.294,291.262 262.023,291.415 260.596 C 291.568 259.168,291.852 258.000,292.047 258.000 C 292.241 258.000,292.400 257.370,292.400 256.600 C 292.400 255.830,292.580 255.200,292.800 255.200 C 293.020 255.200,293.200 254.480,293.200 253.600 C 293.200 252.720,293.380 252.000,293.600 252.000 C 293.820 252.000,294.000 251.100,294.000 250.000 C 294.000 248.900,294.180 248.000,294.400 248.000 C 294.622 248.000,294.800 246.933,294.800 245.600 C 294.800 244.267,294.978 243.200,295.200 243.200 C 295.426 243.200,295.600 242.067,295.600 240.600 C 295.600 239.133,295.774 238.000,296.000 238.000 C 296.249 238.000,296.400 235.675,296.400 231.824 C 296.400 228.137,296.561 225.548,296.800 225.400 C 297.020 225.264,297.200 223.644,297.200 221.800 C 297.200 219.956,297.020 218.336,296.800 218.200 C 296.562 218.053,296.400 215.529,296.400 211.976 C 296.400 208.259,296.249 206.000,296.000 206.000 C 295.771 206.000,295.600 204.800,295.600 203.200 C 295.600 201.600,295.429 200.400,295.200 200.400 C 294.978 200.400,294.800 199.333,294.800 198.000 C 294.800 196.667,294.622 195.600,294.400 195.600 C 294.180 195.600,294.000 194.790,294.000 193.800 C 294.000 192.810,293.820 192.000,293.600 192.000 C 293.380 192.000,293.200 191.280,293.200 190.400 C 293.200 189.520,293.020 188.800,292.800 188.800 C 292.580 188.800,292.400 188.080,292.400 187.200 C 292.400 186.320,292.243 185.600,292.052 185.600 C 291.860 185.600,291.581 184.655,291.432 183.500 C 291.154 181.340,290.568 179.127,289.951 177.905 C 289.758 177.523,289.600 176.848,289.600 176.405 C 289.600 175.962,289.420 175.600,289.200 175.600 C 288.980 175.600,288.800 175.251,288.800 174.824 C 288.800 174.397,288.620 173.936,288.400 173.800 C 288.180 173.664,288.000 173.113,288.000 172.576 C 288.000 172.039,287.820 171.600,287.600 171.600 C 287.380 171.600,287.200 171.161,287.200 170.624 C 287.200 170.087,287.020 169.536,286.800 169.400 C 286.580 169.264,286.400 168.803,286.400 168.376 C 286.400 167.949,286.220 167.600,286.000 167.600 C 285.780 167.600,285.600 167.240,285.600 166.800 C 285.600 166.360,285.420 166.000,285.200 166.000 C 284.980 166.000,284.800 165.640,284.800 165.200 C 284.800 164.760,284.620 164.400,284.400 164.400 C 284.180 164.400,284.000 163.965,284.000 163.433 C 284.000 162.902,283.865 162.407,283.700 162.333 C 283.430 162.213,282.222 160.111,281.040 157.703 C 280.798 157.210,280.465 156.805,280.300 156.803 C 280.135 156.801,280.000 156.440,280.000 156.000 C 280.000 155.560,279.820 155.200,279.600 155.200 C 279.380 155.200,279.200 154.917,279.200 154.571 C 279.200 153.678,278.124 152.717,277.301 152.876 C 276.654 153.001,272.907 157.748,265.884 167.340 C 259.245 176.409,256.718 179.877,255.788 181.200 C 255.246 181.970,254.352 183.230,253.800 184.000 C 252.638 185.622,250.865 188.143,250.000 189.401 C 249.670 189.881,248.950 190.909,248.400 191.685 C 247.416 193.073,243.975 198.060,242.800 199.800 C 241.430 201.829,238.335 206.322,237.152 208.000 C 233.879 212.640,213.885 242.355,213.464 243.205 C 213.000 244.139,212.393 245.106,209.443 249.600 C 207.017 253.294,204.340 257.418,201.391 262.000 C 198.913 265.850,190.275 279.564,188.917 281.804 C 187.266 284.527,184.497 289.031,183.919 289.935 C 183.545 290.521,183.005 291.402,182.719 291.894 C 182.434 292.386,179.232 297.696,175.605 303.694 C 171.978 309.692,168.810 314.974,168.564 315.431 C 168.165 316.177,164.525 322.419,162.793 325.331 C 161.902 326.828,161.821 326.737,157.255 319.148 C 152.537 311.306,152.823 311.769,151.300 309.524 C 150.585 308.470,150.000 307.515,150.000 307.400 C 150.000 307.285,149.370 306.295,148.600 305.200 C 147.830 304.105,147.200 303.134,147.200 303.044 C 147.200 302.819,132.089 280.181,127.813 274.000 C 125.911 271.250,123.149 267.223,121.677 265.052 C 120.205 262.880,118.550 260.467,118.000 259.689 C 117.450 258.911,116.730 257.877,116.400 257.393 C 114.485 254.580,111.690 250.544,111.000 249.594 C 110.560 248.989,109.487 247.437,108.615 246.147 C 107.743 244.856,106.557 243.170,105.980 242.400 C 105.023 241.125,97.699 230.860,94.787 226.712 C 94.126 225.771,92.681 223.740,91.576 222.200 C 90.470 220.660,89.124 218.770,88.584 218.000 C 88.045 217.230,87.152 215.970,86.600 215.200 C 86.048 214.430,85.147 213.170,84.597 212.400 C 84.046 211.630,82.967 210.190,82.198 209.200 C 81.429 208.210,80.680 207.130,80.532 206.800 C 80.385 206.470,79.800 205.631,79.233 204.936 C 78.665 204.240,77.750 203.018,77.200 202.219 C 76.174 200.729,74.827 198.865,72.993 196.400 C 71.936 194.978,67.113 188.295,64.200 184.215 C 63.320 182.982,62.550 181.830,62.489 181.655 C 62.370 181.312,74.039 169.777,81.686 162.677 L 86.342 158.355 90.322 161.077 C 92.511 162.575,97.519 166.060,101.451 168.822 C 105.383 171.584,109.770 174.664,111.200 175.666 C 112.630 176.668,114.610 178.059,115.600 178.758 C 117.355 179.997,119.640 181.590,121.400 182.800 C 121.880 183.130,122.976 183.892,123.836 184.494 C 126.739 186.525,130.585 189.194,133.200 190.992 C 134.630 191.975,136.970 193.607,138.400 194.619 C 139.830 195.630,141.630 196.892,142.400 197.423 C 143.831 198.409,147.888 201.234,150.400 202.992 C 151.170 203.531,152.970 204.802,154.400 205.817 C 155.830 206.831,157.964 208.316,159.143 209.116 L 161.285 210.570 162.743 208.941 C 163.544 208.045,164.884 206.432,165.721 205.356 C 166.557 204.280,168.447 201.894,169.921 200.054 C 171.394 198.214,173.050 196.118,173.600 195.396 C 177.158 190.729,192.952 172.028,202.000 161.769 C 203.430 160.148,205.756 157.512,207.169 155.911 C 211.891 150.560,216.957 145.087,221.879 140.022 C 224.562 137.260,228.252 133.386,230.079 131.414 C 231.905 129.441,236.010 125.167,239.200 121.916 C 245.259 115.741,245.874 114.786,244.324 113.964 C 243.816 113.695,243.130 113.188,242.800 112.837 C 241.828 111.806,238.879 109.600,238.472 109.600 C 238.266 109.600,237.874 109.330,237.600 109.000 C 237.326 108.670,236.804 108.400,236.439 108.400 C 236.075 108.400,235.517 108.040,235.200 107.600 C 234.883 107.160,234.343 106.800,234.000 106.800 C 233.657 106.800,233.117 106.440,232.800 106.000 C 232.483 105.560,231.903 105.200,231.512 105.200 C 231.120 105.200,230.800 105.020,230.800 104.800 C 230.800 104.580,230.480 104.400,230.088 104.400 C 229.697 104.400,229.117 104.040,228.800 103.600 C 228.483 103.160,227.903 102.800,227.512 102.800 C 227.120 102.800,226.800 102.620,226.800 102.400 C 226.800 102.180,226.440 102.000,226.000 102.000 C 225.560 102.000,225.200 101.820,225.200 101.600 C 225.200 101.380,224.930 101.200,224.600 101.200 C 224.270 101.200,224.000 101.020,224.000 100.800 C 224.000 100.580,223.640 100.400,223.200 100.400 C 222.760 100.400,222.400 100.220,222.400 100.000 C 222.400 99.780,222.040 99.600,221.600 99.600 C 221.160 99.600,220.800 99.420,220.800 99.200 C 220.800 98.980,220.440 98.800,220.000 98.800 C 219.560 98.800,219.200 98.620,219.200 98.400 C 219.200 98.180,218.840 98.000,218.400 98.000 C 217.960 98.000,217.600 97.820,217.600 97.600 C 217.600 97.380,217.240 97.200,216.800 97.200 C 216.360 97.200,216.000 97.020,216.000 96.800 C 216.000 96.580,215.561 96.400,215.024 96.400 C 214.487 96.400,213.936 96.220,213.800 96.000 C 213.664 95.780,213.203 95.600,212.776 95.600 C 212.349 95.600,212.000 95.420,212.000 95.200 C 212.000 94.980,211.561 94.800,211.024 94.800 C 210.487 94.800,209.936 94.620,209.800 94.400 C 209.664 94.180,209.203 94.000,208.776 94.000 C 208.349 94.000,208.000 93.820,208.000 93.600 C 208.000 93.380,207.638 93.200,207.195 93.200 C 206.752 93.200,206.077 93.040,205.695 92.843 C 204.621 92.293,200.628 91.200,199.688 91.200 C 199.226 91.200,198.736 91.020,198.600 90.800 C 198.464 90.580,197.733 90.400,196.976 90.400 C 196.219 90.400,195.600 90.220,195.600 90.000 C 195.600 89.780,194.880 89.600,194.000 89.600 C 193.120 89.600,192.400 89.420,192.400 89.200 C 192.400 88.980,191.691 88.800,190.824 88.800 C 189.957 88.800,189.136 88.620,189.000 88.400 C 188.864 88.180,187.863 88.000,186.776 88.000 C 185.689 88.000,184.800 87.820,184.800 87.600 C 184.800 87.378,183.733 87.200,182.400 87.200 C 181.067 87.200,180.000 87.022,180.000 86.800 C 180.000 86.565,178.600 86.400,176.600 86.400 C 174.600 86.400,173.200 86.235,173.200 86.000 C 173.200 85.742,168.733 85.600,160.600 85.600 C 152.467 85.600,148.000 85.742,148.000 86.000 " stroke="none" fill="#d4fcf3" fill-rule="evenodd"></path></g></svg>